<?xml version="1.0" encoding="utf-8" ?>
<svg xmlns="http://www.w3.org/2000/svg" xmlns:xlink="http://www.w3.org/1999/xlink" width="12" height="12">
	<path fill="#FEFEFE" transform="scale(0.0117188 0.0117188)" d="M0 0L1024 0L1024 1024L0 1024L0 0Z"/>
	<path fill="#D40B13" transform="scale(0.0117188 0.0117188)" d="M214.921 378.122C223.025 378.79 231.263 378.523 239.394 378.521L278.323 378.504C284.904 378.502 293.704 377.467 300.025 379.045C299.802 390.37 299.358 402.355 300.265 413.628L299.489 415.535C298.809 425.168 292.247 434.89 285.067 441.027C281.354 444.2 277.354 446.187 273.068 448.424C270.273 449.588 266.705 450.235 263.699 450.621Q262.633 450.752 261.562 450.831Q260.491 450.909 259.418 450.935Q258.344 450.961 257.27 450.933Q256.197 450.906 255.126 450.825Q254.055 450.745 252.99 450.611Q251.924 450.478 250.866 450.292Q249.809 450.106 248.761 449.868Q247.714 449.631 246.68 449.341Q245.646 449.052 244.627 448.712Q243.608 448.372 242.608 447.982Q241.607 447.592 240.627 447.153Q239.647 446.714 238.69 446.228Q237.733 445.741 236.801 445.207Q235.869 444.674 234.964 444.095Q234.06 443.516 233.185 442.893Q232.31 442.27 231.467 441.605C221.188 433.595 216.056 422.867 214.484 410.14C214.592 402.743 213.267 383.994 214.921 378.122Z"/>
	<path fill="#ED4A24" transform="scale(0.0117188 0.0117188)" d="M214.484 410.14C222.131 410.914 230.17 410.477 237.865 410.491L279.144 410.556C285.718 410.557 292.813 409.884 299.299 410.76C299.536 412.384 299.538 413.896 299.489 415.535C298.809 425.168 292.247 434.89 285.067 441.027C281.354 444.2 277.354 446.187 273.068 448.424C270.273 449.588 266.705 450.235 263.699 450.621Q262.633 450.752 261.562 450.831Q260.491 450.909 259.418 450.935Q258.344 450.961 257.27 450.933Q256.197 450.906 255.126 450.825Q254.055 450.745 252.99 450.611Q251.924 450.478 250.866 450.292Q249.809 450.106 248.761 449.868Q247.714 449.631 246.68 449.341Q245.646 449.052 244.627 448.712Q243.608 448.372 242.608 447.982Q241.607 447.592 240.627 447.153Q239.647 446.714 238.69 446.228Q237.733 445.741 236.801 445.207Q235.869 444.674 234.964 444.095Q234.06 443.516 233.185 442.893Q232.31 442.27 231.467 441.605C221.188 433.595 216.056 422.867 214.484 410.14Z"/>
	<path fill="#ED4A24" transform="scale(0.0117188 0.0117188)" d="M722.388 379.84C724.692 379.02 805.407 378.983 808.461 379.846L809.216 380.874C808.632 390.641 809.335 400.46 808.643 410.203C807.646 422.813 802.003 434.026 792.325 442.222C783.46 449.73 772.883 453.362 761.268 452.332C757.558 452.003 753.976 451.187 750.423 450.091C748.432 448.668 745.692 447.681 743.535 446.411C730.384 438.663 726.092 429.636 722.306 415.376C722.232 412.578 722.277 409.782 722.304 406.983Q722.501 393.412 722.388 379.84Z"/>
	<path fill="#D40B13" transform="scale(0.0117188 0.0117188)" d="M722.388 379.84C724.692 379.02 805.407 378.983 808.461 379.846L809.216 380.874C808.632 390.641 809.335 400.46 808.643 410.203C800.559 411.014 725.142 411.595 722.626 410.031L722.304 406.983Q722.501 393.412 722.388 379.84Z"/>
	<defs>
		<linearGradient id="gradient_0" gradientUnits="userSpaceOnUse" x1="505.37405" y1="317.34695" x2="524.22632" y2="103.43263">
			<stop offset="0" stop-color="#0E61A5"/>
			<stop offset="1" stop-color="#168CC9"/>
		</linearGradient>
	</defs>
	<path fill="url(#gradient_0)" transform="scale(0.0117188 0.0117188)" d="M273.522 267.925L273.493 224.998C273.502 215.788 272.979 206.232 273.72 197.062C275.331 177.113 283.894 157.123 298.027 142.842C315.783 124.899 336.291 115.961 361.493 115.947L570.774 115.793Q605.717 115.538 640.66 115.675C655.075 115.71 670.86 114.668 685.045 117.33C700.234 120.181 715.289 129.815 726.059 140.609C735.451 150.022 742.485 161.356 746.115 174.196C751.667 193.837 749.918 216.188 750.084 236.495L750.471 302.146C745.954 297.77 742.097 291.614 738.215 286.619C730.249 276.371 722.094 266.308 714.396 255.851L714.483 221.737C714.51 213.348 715.147 204.501 713.463 196.254C710.652 182.486 701.522 169.194 689.754 161.543C682.097 156.565 673.643 153.182 664.521 152.342C657.628 151.707 650.528 151.997 643.608 152.002L609.556 152.031L502.137 152.006L404.268 151.972C392.022 151.956 364.878 150.616 353.737 153.087Q352.384 153.393 351.048 153.765Q349.712 154.137 348.396 154.573Q347.079 155.009 345.786 155.509Q344.492 156.009 343.224 156.571Q341.956 157.133 340.717 157.756Q339.478 158.379 338.271 159.062Q337.064 159.744 335.891 160.485Q334.719 161.225 333.584 162.022Q332.448 162.818 331.353 163.669Q330.258 164.52 329.206 165.423Q328.153 166.326 327.146 167.28Q326.138 168.233 325.179 169.234Q324.219 170.235 323.309 171.282Q322.399 172.328 321.541 173.418Q320.683 174.507 319.879 175.637Q319.075 176.767 318.327 177.935C314.65 183.771 311.814 190.306 310.56 197.111C309.554 202.569 308.853 250.342 310.063 255.04C310.353 256.169 310.763 256.082 311.719 256.642C311.411 258.83 306.898 263.759 305.315 265.478L283.933 291.477C280.66 295.407 277.407 300.004 273.685 303.455Q273.459 285.69 273.522 267.925Z"/>
	<path fill="#082D56" transform="scale(0.0117188 0.0117188)" d="M273.522 267.925L273.65 268.315C273.72 268.532 273.781 268.752 273.856 268.967C276.499 276.46 273.757 288.549 275.065 297.07C281.301 297.917 298.621 267.874 304.53 265.727C304.788 265.633 305.053 265.561 305.315 265.478L283.933 291.477C280.66 295.407 277.407 300.004 273.685 303.455Q273.459 285.69 273.522 267.925Z"/>
	<path fill="#082D56" transform="scale(0.0117188 0.0117188)" d="M300.265 413.628C301.322 417.494 302.443 421.243 304.022 424.933C304.798 426.745 306.017 428.607 306.577 430.461L306.585 776.282L717.365 776.153L717.073 497.532C718.133 489.127 717.511 479.968 717.524 471.476C717.544 457.903 717.822 444.264 717.414 430.698C720.274 425.566 721.63 421.197 722.306 415.376C726.092 429.636 730.384 438.663 743.535 446.411C745.692 447.681 748.432 448.668 750.423 450.091C750.107 463.364 750.333 476.693 750.291 489.972Q749.817 529.715 750.244 569.458L750.4 728.931L750.49 793.829C750.514 809.375 751.535 825.537 748.782 840.885C745.971 856.548 738.092 870.41 727.354 882.012C712.966 897.557 692.311 905.614 671.323 906.379C648.332 907.218 625.033 906.393 602.005 906.402L461.37 906.463L385.249 906.465C370.769 906.454 355.098 907.64 340.829 905.218C325.672 902.645 310.134 895.061 298.934 884.515C286.849 873.136 277.989 858.148 274.818 841.806C271.785 826.172 273.057 808.922 273.123 793.018L273.176 732.821L273.375 544.966C273.366 512.831 274.065 480.536 273.068 448.424C277.354 446.187 281.354 444.2 285.067 441.027C292.247 434.89 298.809 425.168 299.489 415.535L300.265 413.628Z"/>
	<path fill="#FEFEFE" transform="scale(0.0117188 0.0117188)" d="M509.129 822.107C514.999 821.678 521.003 822.964 525.932 826.267Q526.437 826.604 526.924 826.965Q527.411 827.327 527.88 827.712Q528.349 828.097 528.798 828.505Q529.247 828.913 529.675 829.343Q530.104 829.773 530.51 830.224Q530.916 830.674 531.3 831.144Q531.683 831.615 532.043 832.103Q532.403 832.592 532.738 833.098Q533.072 833.604 533.382 834.126Q533.691 834.648 533.974 835.184Q534.257 835.721 534.513 836.271Q534.769 836.821 534.998 837.383Q535.226 837.946 535.426 838.518Q535.626 839.091 535.798 839.673Q535.969 840.255 536.112 840.845Q536.254 841.435 536.367 842.031C537.579 848.376 536.498 855.07 532.793 860.427C528.642 866.431 522.68 869.6 515.679 870.978C509.76 871.511 504.428 870.72 499.334 867.442Q498.804 867.098 498.292 866.728Q497.779 866.358 497.286 865.964Q496.792 865.569 496.319 865.151Q495.845 864.732 495.393 864.291Q494.941 863.849 494.512 863.386Q494.082 862.923 493.676 862.439Q493.269 861.955 492.887 861.451Q492.505 860.948 492.149 860.427Q491.792 859.905 491.462 859.366Q491.132 858.827 490.828 858.273Q490.525 857.719 490.25 857.15Q489.974 856.582 489.727 856Q489.48 855.418 489.262 854.825Q489.044 854.232 488.855 853.629Q488.667 853.026 488.508 852.414Q488.35 851.803 488.222 851.184C486.916 844.765 488.677 838.127 492.39 832.801C496.522 826.873 502.083 823.411 509.129 822.107Z"/>
	<path fill="#FEFEFE" transform="scale(0.0117188 0.0117188)" d="M306.414 791.154C355.03 790.392 403.769 791.066 452.398 791.048L717.039 790.91C717.058 792.848 717.555 797.06 716.411 798.593C658.721 799.805 600.877 798.695 543.176 798.626L306.403 798.556Q306.373 794.855 306.414 791.154Z"/>
	<path fill="#FEFEFE" transform="scale(0.0117188 0.0117188)" d="M311.719 256.642C310.763 256.082 310.353 256.169 310.063 255.04C308.853 250.342 309.554 202.569 310.56 197.111C311.814 190.306 314.65 183.771 318.327 177.935Q319.075 176.767 319.879 175.637Q320.683 174.507 321.541 173.418Q322.399 172.328 323.309 171.281Q324.219 170.235 325.179 169.234Q326.138 168.233 327.146 167.28Q328.153 166.326 329.206 165.423Q330.258 164.52 331.353 163.669Q332.448 162.818 333.584 162.022Q334.719 161.225 335.891 160.485Q337.064 159.744 338.271 159.062Q339.478 158.379 340.717 157.756Q341.956 157.133 343.224 156.571Q344.492 156.009 345.786 155.509Q347.079 155.009 348.396 154.573Q349.712 154.137 351.048 153.765Q352.384 153.393 353.737 153.087C364.878 150.616 392.022 151.956 404.268 151.972L502.137 152.006L609.556 152.031L643.608 152.002C650.528 151.997 657.628 151.707 664.521 152.342C673.643 153.182 682.097 156.565 689.754 161.543C701.522 169.194 710.652 182.486 713.463 196.254C715.147 204.501 714.51 213.348 714.483 221.737L714.396 255.851C722.094 266.308 730.249 276.371 738.215 286.619C742.097 291.614 745.954 297.77 750.471 302.146C763.97 320.278 778.398 337.602 792.557 355.213C796.39 359.981 807.301 372.216 809.32 377.002C809.728 377.969 809.569 378.926 809.397 379.921C809.342 380.24 809.277 380.557 809.216 380.874L808.461 379.846C805.407 378.983 724.692 379.02 722.388 379.84L722.209 379.619C713.448 378.672 703.908 379.408 695.076 379.417L639.888 379.502L639.661 379.358C634.2 378.855 628.521 379.155 623.035 379.154L592.418 379.202L567.336 379.219C562.411 379.211 557.319 378.938 552.417 379.42L552.134 379.38C541.074 380.377 527.84 379.542 516.473 379.556C501.42 379.575 485.817 380.407 470.832 379.422L470.567 379.711C461.555 378.785 451.824 379.474 442.762 379.476L387.373 379.45L387.065 379.52C376.861 379.992 306.237 380.988 300.364 379.103L300.025 379.045C293.704 377.467 284.904 378.502 278.323 378.504L239.394 378.521C231.263 378.523 223.025 378.79 214.921 378.122C229.024 359.377 243.916 341.322 258.355 322.846C263.376 316.423 269.229 310.263 273.685 303.455C277.407 300.004 280.66 295.407 283.933 291.477L305.315 265.478C306.898 263.759 311.411 258.83 311.719 256.642Z"/>
	<path fill="#ED4A24" transform="scale(0.0117188 0.0117188)" d="M311.719 256.642C317.659 254.76 352.991 255.903 361.847 255.918C357.088 264.347 353.098 273.221 348.824 281.903L329.158 321.506C323.132 333.662 317.254 345.92 311.111 358.014C307.55 365.025 303.536 371.908 300.364 379.103L300.025 379.045C293.704 377.467 284.904 378.502 278.323 378.504L239.394 378.521C231.263 378.523 223.025 378.79 214.921 378.122C229.024 359.377 243.916 341.322 258.355 322.846C263.376 316.423 269.229 310.263 273.685 303.455C277.407 300.004 280.66 295.407 283.933 291.477L305.315 265.478C306.898 263.759 311.411 258.83 311.719 256.642Z"/>
	<path fill="#ED4A24" transform="scale(0.0117188 0.0117188)" d="M661.788 255.718L695.296 255.603C701.564 255.584 708.174 255.168 714.396 255.851C722.094 266.308 730.249 276.371 738.215 286.619C742.097 291.614 745.954 297.77 750.471 302.146C763.97 320.278 778.398 337.602 792.557 355.213C796.39 359.981 807.301 372.216 809.32 377.002C809.728 377.969 809.569 378.926 809.397 379.921C809.342 380.24 809.277 380.557 809.216 380.874L808.461 379.846C805.407 378.983 724.692 379.02 722.388 379.84L722.209 379.619Q705.271 346.272 688.846 312.669C679.505 293.807 670.113 275.061 661.788 255.718Z"/>
	<path fill="#ED4A24" transform="scale(0.0117188 0.0117188)" d="M421.752 255.638C441.68 255.857 461.637 255.589 481.568 255.546C480.893 268.575 479.262 281.656 478.217 294.67C475.946 322.98 473.772 351.171 470.832 379.422L470.567 379.711C461.555 378.785 451.824 379.474 442.762 379.476L387.373 379.45C392.572 362.721 396.824 345.581 401.387 328.664Q411.232 292.057 421.752 255.638Z"/>
	<path fill="#ED4A24" transform="scale(0.0117188 0.0117188)" d="M541.457 255.724Q571.293 255.996 601.127 255.562Q616.345 303.529 630.6 351.791C633.314 360.995 637.44 370.078 639.661 379.358C634.2 378.855 628.521 379.155 623.035 379.154L592.418 379.202L567.336 379.219C562.411 379.211 557.319 378.938 552.417 379.42L552.134 379.38C548.219 338.2 545.737 296.857 541.457 255.724Z"/>
	<path fill="#ED4A24" transform="scale(0.0117188 0.0117188)" d="M479.244 163.25Q544.405 162.871 609.566 163.194L644.815 163.114C652.776 163.096 661.248 162.473 669.079 163.969C676.748 165.435 683.8 169.662 689.323 175.097C702.551 188.114 703.339 202.089 703.412 219.717L703.478 245.023L544.25 244.963L389.037 245.221C366.215 245.284 343.344 244.896 320.529 245.334L320.474 219.991C320.408 203.209 320.546 189.218 333.123 176.5C338.83 170.729 346.554 166.24 354.5 164.454C365.113 162.069 387.603 163.348 399.118 163.354L479.244 163.25Z"/>
	<path fill="#FEFEFE" transform="scale(0.0117188 0.0117188)" d="M442.665 198.085C452.831 197.713 463.111 198.002 473.286 197.999L530.43 197.945C539.762 197.932 578.942 196.773 584.552 198.423C586.028 198.857 586.962 199.862 587.653 201.183C588.594 202.984 589.113 205.863 588.307 207.804C587.458 209.847 586.215 210.523 584.316 211.41C554.995 212.045 525.526 211.38 496.19 211.374L463.553 211.414C457.374 211.425 450.904 211.793 444.755 211.181C442.718 210.979 440.734 210.338 439.459 208.638C438.32 207.12 438.163 205.162 438.573 203.361C439.156 200.805 440.542 199.477 442.665 198.085Z"/>
	<path fill="#FEFEFE" transform="scale(0.0117188 0.0117188)" d="M300.364 379.103C306.237 380.988 376.861 379.992 387.065 379.52L387.373 379.45L442.762 379.476C451.824 379.474 461.555 378.785 470.567 379.711L470.832 379.422C485.817 380.407 501.42 379.575 516.473 379.556C527.84 379.542 541.074 380.377 552.134 379.38L552.417 379.42C557.319 378.938 562.411 379.211 567.336 379.219L592.418 379.202L623.035 379.154C628.521 379.155 634.2 378.855 639.661 379.358L639.888 379.502L695.076 379.417C703.908 379.408 713.448 378.672 722.209 379.619L722.388 379.84Q722.501 393.412 722.304 406.983C722.277 409.782 722.232 412.578 722.306 415.376C721.63 421.197 720.274 425.566 717.414 430.698C717.822 444.264 717.544 457.903 717.524 471.476C717.511 479.968 718.133 489.127 717.073 497.532L717.365 776.153L306.585 776.282L306.577 430.461C306.017 428.607 304.798 426.745 304.022 424.933C302.443 421.243 301.322 417.494 300.265 413.628C299.358 402.355 299.802 390.37 300.025 379.045L300.364 379.103Z"/>
	<path fill="#99AEB1" transform="scale(0.0117188 0.0117188)" d="M300.364 379.103C306.237 380.988 376.861 379.992 387.065 379.52C385.179 387.746 386.661 401.189 386.371 410.093L386.275 417.071C382.374 429.416 374.869 439.83 363.224 445.95C353.402 451.113 342.204 452.474 331.575 449.057C321.475 445.809 312.971 438.783 306.577 430.461C306.017 428.607 304.798 426.745 304.022 424.933C302.443 421.243 301.322 417.494 300.265 413.628C299.358 402.355 299.802 390.37 300.025 379.045L300.364 379.103Z"/>
	<path fill="#99AEB1" transform="scale(0.0117188 0.0117188)" d="M639.888 379.502L695.076 379.417C703.908 379.408 713.448 378.672 722.209 379.619L722.388 379.84Q722.501 393.412 722.304 406.983C722.277 409.782 722.232 412.578 722.306 415.376C721.63 421.197 720.274 425.566 717.414 430.698C717.822 444.264 717.544 457.903 717.524 471.476C717.511 479.968 718.133 489.127 717.073 497.532C716.377 490.436 716.945 482.765 716.964 475.61L717.096 431.601C711.464 440.754 702.52 448.563 692.076 451.627Q691.131 451.896 690.175 452.118Q689.218 452.34 688.252 452.516Q687.286 452.691 686.312 452.819Q685.338 452.947 684.359 453.027Q683.381 453.107 682.399 453.139Q681.417 453.171 680.435 453.156Q679.453 453.14 678.473 453.076Q677.493 453.012 676.518 452.901Q675.542 452.789 674.573 452.63Q673.604 452.471 672.644 452.265Q671.683 452.059 670.734 451.806Q669.785 451.553 668.85 451.254Q667.914 450.956 666.995 450.611Q666.075 450.267 665.173 449.878Q664.271 449.49 663.389 449.057Q662.508 448.625 661.648 448.15C648.218 440.725 644.033 429.399 639.964 415.414L640.012 410.056Q640.224 394.778 639.888 379.502Z"/>
	<path fill="#99AEB1" transform="scale(0.0117188 0.0117188)" d="M470.832 379.422C485.817 380.407 501.42 379.575 516.473 379.556C527.84 379.542 541.074 380.377 552.134 379.38L552.417 379.42Q552.532 394.75 552.376 410.079L552.749 417.386C551.65 421.133 551.167 424.863 549.834 428.591Q549.503 429.509 549.126 430.409Q548.75 431.309 548.329 432.189Q547.909 433.069 547.445 433.928Q546.981 434.786 546.475 435.62Q545.97 436.455 545.423 437.263Q544.877 438.071 544.291 438.852Q543.706 439.632 543.082 440.382Q542.458 441.132 541.798 441.851Q541.138 442.569 540.443 443.254Q539.748 443.939 539.02 444.588Q538.293 445.238 537.533 445.85Q536.774 446.463 535.985 447.038Q535.197 447.612 534.381 448.146Q533.565 448.681 532.723 449.174Q531.881 449.668 531.016 450.119Q530.151 450.57 529.265 450.978Q528.366 451.401 527.447 451.778Q526.528 452.155 525.591 452.485Q524.654 452.815 523.701 453.098Q522.749 453.38 521.784 453.614Q520.818 453.848 519.842 454.033Q518.866 454.218 517.882 454.354Q516.898 454.489 515.908 454.575Q514.918 454.661 513.925 454.697Q512.932 454.732 511.939 454.718Q510.946 454.703 509.954 454.639Q508.963 454.574 507.976 454.46Q506.989 454.345 506.01 454.181Q505.03 454.017 504.059 453.804Q503.089 453.59 502.131 453.328Q501.173 453.066 500.229 452.756Q499.285 452.446 498.358 452.089C487.962 448.136 478.569 439.83 474.501 429.355C473.047 425.612 472.391 421.423 470.694 417.823C470.556 417.531 470.411 417.242 470.27 416.951L470.49 410.201L470.567 379.711L470.832 379.422Z"/>
	<path fill="#ED4A24" transform="scale(0.0117188 0.0117188)" d="M387.373 379.45L442.762 379.476C451.824 379.474 461.555 378.785 470.567 379.711L470.49 410.201L470.27 416.951Q470.076 418.285 469.801 419.605Q469.526 420.925 469.171 422.225Q468.816 423.526 468.382 424.802Q467.948 426.078 467.437 427.326Q466.926 428.573 466.339 429.787Q465.753 431.001 465.094 432.177Q464.435 433.353 463.705 434.487Q462.975 435.62 462.177 436.707C455.627 445.728 445.151 452.379 434.079 453.994C423.475 455.542 411.723 452.416 403.177 445.968C393.764 438.866 387.884 428.665 386.275 417.071L386.371 410.093C386.661 401.189 385.179 387.746 387.065 379.52L387.373 379.45Z"/>
	<path fill="#D40B13" transform="scale(0.0117188 0.0117188)" d="M387.373 379.45L442.762 379.476C451.824 379.474 461.555 378.785 470.567 379.711L470.49 410.201L386.371 410.093C386.661 401.189 385.179 387.746 387.065 379.52L387.373 379.45Z"/>
	<path fill="#ED4A24" transform="scale(0.0117188 0.0117188)" d="M552.417 379.42C557.319 378.938 562.411 379.211 567.336 379.219L592.418 379.202L623.035 379.154C628.521 379.155 634.2 378.855 639.661 379.358L639.888 379.502Q640.224 394.778 640.012 410.056L639.964 415.414C637.868 428.539 631.931 439.476 620.984 447.338C611.638 454.05 600.23 456.836 588.888 454.831Q587.816 454.652 586.754 454.418Q585.693 454.185 584.645 453.898Q583.596 453.611 582.564 453.272Q581.531 452.932 580.517 452.541Q579.504 452.149 578.511 451.707Q577.518 451.265 576.549 450.773Q575.58 450.281 574.637 449.74Q573.694 449.2 572.779 448.612Q571.865 448.025 570.982 447.392Q570.098 446.759 569.248 446.082Q568.398 445.404 567.583 444.685Q566.768 443.966 565.991 443.206Q565.214 442.447 564.476 441.649Q563.738 440.851 563.042 440.016Q562.345 439.182 561.692 438.313Q561.038 437.445 560.43 436.544C556.384 430.678 554.043 424.359 552.749 417.386L552.376 410.079Q552.532 394.75 552.417 379.42Z"/>
	<path fill="#D40B13" transform="scale(0.0117188 0.0117188)" d="M552.417 379.42C557.319 378.938 562.411 379.211 567.336 379.219L592.418 379.202L623.035 379.154C628.521 379.155 634.2 378.855 639.661 379.358L639.888 379.502Q640.224 394.778 640.012 410.056C610.871 409.359 581.537 410.052 552.376 410.079Q552.532 394.75 552.417 379.42Z"/>
	<path fill="#0FACD9" transform="scale(0.0117188 0.0117188)" d="M580.397 480.245L619.284 480.089C626.415 480.072 634.313 479.389 641.35 480.626C644.714 481.217 648.741 482.608 651.234 485.047C655.535 489.256 656.384 495.029 656.509 500.724C656.918 519.309 656.606 537.978 656.632 556.572L656.663 668.309L656.72 719.801C656.811 729.327 657.798 739.659 656.811 749.118C656.476 752.321 654.545 755.763 652.296 758.007C649.645 760.651 646.053 762.408 642.422 763.222C634.052 765.097 609.325 763.928 599.151 763.895L522.015 763.932C521.369 731.358 522.005 698.647 522.003 666.056L521.944 480.452L580.397 480.245Z"/>
	<path fill="#FEFEFE" transform="scale(0.0117188 0.0117188)" d="M638.463 544.451C639.963 546.835 638.832 563.265 638.437 566.863C633.782 571.995 628.386 576.677 623.317 581.407Q610.527 593.283 597.884 605.315C576.226 626.032 555.201 647.442 533.491 668.089L533.153 667.76C532.329 664.919 533.499 651.151 533.5 646.847C539.117 639.022 553.028 627.942 560.611 620.505L606.027 576.573C616.906 565.912 627.441 554.984 638.463 544.451Z"/>
	<path fill="#FEFEFE" transform="scale(0.0117188 0.0117188)" d="M638.281 581.358C639.481 588.216 638.471 598.814 638.272 606.028L557.884 683.408C548.848 692.072 540.077 701.053 530.837 709.495C529.917 702.228 530.66 694.124 530.747 686.766C543.507 674.569 555.817 661.839 568.444 649.496L638.281 581.358Z"/>
	<path fill="#0FACD9" transform="scale(0.0117188 0.0117188)" d="M390.44 479.705L511.733 480.096L512.108 763.809L492.408 763.883L420.645 763.975C409.453 763.965 397.195 765.003 386.121 763.64C382.795 763.231 379.6 762.226 376.887 760.196C373.704 757.815 370.57 753.084 370.144 749.069C369.729 745.155 369.996 740.95 369.999 737.01L370.017 713.823L370.009 639.345L369.974 546.661C369.981 531.333 369.012 513.767 370.451 498.631C370.845 494.489 372.628 491.199 375.266 487.991C379.306 483.076 384.167 480.405 390.44 479.705Z"/>
	<path fill="#FEFEFE" transform="scale(0.0117188 0.0117188)" d="M497.413 569.418C497.498 569.5 497.605 569.565 497.668 569.664C499.228 572.1 498.211 587.249 498.144 590.73L432.529 654.744C418.434 668.665 402.683 685.563 387.374 697.88L387.199 697.833C385.94 696.411 386.605 680.056 386.631 676.919C394.541 668.246 403.705 660.776 411.954 652.424C426.979 637.21 442.304 622.355 457.611 607.426C470.781 594.582 483.744 581.744 497.413 569.418Z"/>
	<path fill="#FEFEFE" transform="scale(0.0117188 0.0117188)" d="M498.38 605.885C499.352 613.128 498.212 621.768 497.993 629.161L434.633 690.527C418.582 706.238 402.934 722.643 386.346 737.763C384.552 732.28 385.756 721.728 385.836 715.791C389.212 711.469 393.575 707.582 397.456 703.7C406.86 694.294 416.53 685.278 426.144 676.1Q449.267 653.786 472.075 631.15C480.776 622.65 489.76 614.476 498.38 605.885Z"/>
</svg>
